# Blender v2.79 (sub 0) OBJ File: 'exteriors.blend'
# www.blender.org
mtllib cargo.mtl
o cargoShip_Cube.007
v -2.147695 -0.113839 2.115582
v -2.147695 0.113839 2.115582
v -2.147695 -0.113839 1.590232
v -2.147695 0.113839 1.590232
v -1.058955 -0.113839 2.115582
v -1.058955 0.113839 2.115582
v -1.058955 -0.113839 1.590232
v -1.058955 0.113839 1.590232
v -0.680640 0.115757 1.683128
v -0.680640 -0.031402 1.683128
v -0.680640 0.115757 2.022686
v -0.680640 -0.031402 2.022686
v -0.490842 0.110716 1.852907
v -1.070868 0.113839 1.652857
v -2.109782 0.113839 1.652857
v -2.109782 0.113839 2.052957
v -1.070868 0.113839 2.052957
v -0.709867 0.115757 1.723606
v -0.709867 0.115757 1.982209
v -0.528755 0.110716 1.852907
v -0.595333 0.062177 1.852907
v -0.766860 0.066807 1.734159
v -1.108754 0.065046 1.669185
v -0.766860 0.066807 1.971655
v -1.108754 0.065046 2.036629
v -2.092683 0.065046 2.036629
v -2.092683 0.065046 1.669185
v -1.898409 0.047137 1.997401
v -1.898409 0.202918 1.997401
v -1.898409 0.047137 1.708413
v -1.898409 0.202918 1.708413
v -1.774389 0.047137 1.997401
v -1.774389 0.202918 1.997401
v -1.774389 0.047137 1.708413
v -1.774389 0.202918 1.708413
v -1.940320 0.202918 2.052152
v -1.940320 0.202918 1.653661
v -1.732478 0.202918 1.653661
v -1.732478 0.202918 2.052152
v -1.940320 0.272418 2.052152
v -1.940320 0.272418 1.653661
v -1.732478 0.272418 1.653661
v -1.732478 0.272418 2.052152
v -1.917930 0.272418 2.030933
v -1.917930 0.272418 1.674880
v -1.754868 0.272418 1.674880
v -1.754868 0.272418 2.030933
v -1.919704 0.213878 2.030933
v -1.919704 0.213878 1.674880
v -1.756642 0.213878 1.674880
v -1.756642 0.213878 2.030933
v -1.891064 0.213878 1.770830
v -1.891064 0.213878 1.722110
v -1.852692 0.213878 1.722110
v -1.852692 0.213878 1.770830
v -1.891064 0.472874 1.770830
v -1.891064 0.472874 1.722110
v -1.852692 0.472874 1.722110
v -1.852692 0.472874 1.770830
v -1.843354 0.203246 1.747388
v -1.843354 0.203246 1.720717
v -1.822348 0.203246 1.720717
v -1.822348 0.203246 1.747388
v -1.843354 0.356641 1.747388
v -1.843354 0.356641 1.720717
v -1.822348 0.356641 1.720717
v -1.822348 0.356641 1.747388
v -2.253047 0.113839 1.852907
v -2.253047 -0.201851 1.852907
v -1.058955 -0.201851 1.852907
v -0.680640 -0.097019 1.852907
v -2.215135 0.113839 1.852907
v -2.198036 0.065046 1.852907
vt 0.319669 0.948823
vt 0.319669 0.948823
vt 0.319669 0.948823
vt 0.319669 0.948823
vt 0.319669 0.948823
vt 0.319669 0.948823
vt 0.319669 0.948823
vt 0.319669 0.948823
vt 0.319669 0.948823
vt 0.319669 0.948823
vt 0.319669 0.948823
vt 0.319669 0.948823
vt 0.319669 0.948823
vt 0.319669 0.948823
vt 0.319669 0.948823
vt 0.319669 0.948823
vt 0.319669 0.948823
vt 0.319669 0.948823
vt 0.319669 0.948823
vt 0.319669 0.948823
vt 0.319669 0.948823
vt 0.319669 0.948823
vt 0.319669 0.948823
vt 0.319669 0.948823
vt 0.319669 0.948823
vt 0.319669 0.948823
vt 0.319669 0.948823
vt 0.056103 0.965771
vt 0.056103 0.965771
vt 0.056103 0.965771
vt 0.056103 0.965771
vt 0.056103 0.965771
vt 0.056103 0.965771
vt 0.319669 0.948823
vt 0.319669 0.948823
vt 0.319669 0.948823
vt 0.319669 0.948823
vt 0.319669 0.948823
vt 0.319669 0.948823
vt 0.056103 0.965771
vt 0.056103 0.965771
vt 0.056103 0.965771
vt 0.056103 0.965771
vt 0.056103 0.965771
vt 0.056103 0.965771
vt 0.056103 0.965771
vt 0.056103 0.965771
vt 0.056103 0.965771
vt 0.056103 0.965771
vt 0.056103 0.965771
vt 0.056103 0.965771
vt 0.056103 0.965771
vt 0.056103 0.965771
vt 0.056103 0.965771
vt 0.056103 0.965771
vt 0.056103 0.965771
vt 0.056103 0.965771
vt 0.056103 0.965771
vt 0.056103 0.965771
vt 0.056103 0.965771
vt 0.056103 0.965771
vt 0.056103 0.965771
vt 0.056103 0.965771
vt 0.056103 0.965771
vt 0.056103 0.965771
vt 0.056103 0.965771
vt 0.056103 0.965771
vt 0.056103 0.965771
vt 0.056103 0.965771
vt 0.056103 0.965771
vt 0.056103 0.965771
vt 0.056103 0.965771
vt 0.056103 0.965771
vn -0.9281 0.0000 -0.3723
vn 0.0000 0.0000 -1.0000
vn 0.2385 0.0000 0.9712
vn 0.0000 0.0000 1.0000
vn 0.0000 -0.9482 -0.3177
vn 0.0000 1.0000 0.0000
vn 0.2646 -0.9087 -0.3228
vn 0.2385 0.0000 -0.9712
vn 0.0116 0.9997 -0.0193
vn 0.8173 0.3615 -0.4487
vn -0.1746 0.4150 0.8929
vn -0.4377 0.6248 -0.6466
vn 0.7144 -0.6527 -0.2523
vn -0.0005 1.0000 0.0008
vn 0.6667 0.0000 0.7453
vn 0.6667 0.0000 -0.7453
vn 0.0000 -1.0000 0.0000
vn 0.0000 0.3173 0.9483
vn 0.0000 0.3173 -0.9483
vn -0.1746 0.4150 -0.8929
vn -0.4377 0.6248 0.6466
vn -1.0000 0.0000 0.0000
vn 1.0000 0.0000 0.0000
vn -0.9995 0.0303 0.0000
vn 0.9995 -0.0303 0.0000
vn 0.8173 0.3615 0.4487
vn 0.2646 -0.9087 0.3228
vn 0.0000 -0.9482 0.3177
vn -0.9281 0.0000 0.3723
vn 0.7144 -0.6527 0.2523
usemtl None
s off
f 68/1/1 4/2/1 3/3/1 69/4/1
f 4/2/2 8/5/2 7/6/2 3/3/2
f 6/7/3 5/8/3 12/9/3 11/10/3
f 6/7/4 2/11/4 1/12/4 5/8/4
f 69/4/5 3/3/5 7/6/5 70/13/5
f 23/14/6 27/15/6 73/16/6 26/17/6 25/18/6 24/19/6 21/20/6 22/21/6
f 70/13/7 7/6/7 10/22/7 71/23/7
f 7/6/8 8/5/8 9/24/8 10/22/8
f 11/10/9 13/25/9 20/26/9 19/27/9
f 40/28/6 43/29/6 47/30/6 44/31/6 45/32/6 41/33/6
f 72/34/10 16/35/10 26/17/10 73/16/10
f 18/36/11 14/37/11 23/14/11 22/21/11
f 19/27/12 20/26/12 21/20/12 24/19/12
f 71/23/13 10/22/13 13/25/13
f 4/2/14 68/1/14 2/11/14 6/7/14 11/10/14 19/27/14 17/38/14 16/35/14 72/34/14 15/39/14 14/37/14 18/36/14 20/26/14 13/25/14 9/24/14 8/5/14
f 11/10/15 12/9/15 13/25/15
f 10/22/16 9/24/16 13/25/16
f 35/40/17 31/41/17 37/42/17 38/43/17 39/44/17 33/45/17
f 14/37/18 15/39/18 27/15/18 23/14/18
f 16/35/19 17/38/19 25/18/19 26/17/19
f 17/38/20 19/27/20 24/19/20 25/18/20
f 20/26/21 18/36/21 22/21/21 21/20/21
f 29/46/22 31/41/22 30/47/22 28/48/22
f 31/41/2 35/40/2 34/49/2 30/47/2
f 35/40/23 33/45/23 32/50/23 34/49/23
f 33/45/4 29/46/4 28/48/4 32/50/4
f 38/43/2 37/42/2 41/33/2 42/51/2
f 42/51/6 41/33/6 45/32/6 46/52/6 47/30/6 43/29/6
f 39/44/23 38/43/23 42/51/23 43/29/23
f 37/42/22 36/53/22 40/28/22 41/33/22
f 36/53/4 39/44/4 43/29/4 40/28/4
f 44/31/2 47/30/2 51/54/2 48/55/2
f 29/46/17 33/45/17 39/44/17 36/53/17 37/42/17 31/41/17
f 51/54/6 50/56/6 49/57/6 48/55/6
f 46/52/4 45/32/4 49/57/4 50/56/4
f 47/30/24 46/52/24 50/56/24 51/54/24
f 45/32/25 44/31/25 48/55/25 49/57/25
f 67/58/6 66/59/6 65/60/6 64/61/6
f 59/62/6 58/63/6 57/64/6 56/65/6
f 55/66/23 54/67/23 58/63/23 59/62/23
f 53/68/22 52/69/22 56/65/22 57/64/22
f 52/69/4 55/66/4 59/62/4 56/65/4
f 54/67/2 53/68/2 57/64/2 58/63/2
f 63/70/23 62/71/23 66/59/23 67/58/23
f 61/72/22 60/73/22 64/61/22 65/60/22
f 60/73/4 63/70/4 67/58/4 64/61/4
f 62/71/2 61/72/2 65/60/2 66/59/2
f 15/39/26 72/34/26 73/16/26 27/15/26
f 5/8/27 70/13/27 71/23/27 12/9/27
f 1/12/28 69/4/28 70/13/28 5/8/28
f 2/11/29 68/1/29 69/4/29 1/12/29
f 12/9/30 71/23/30 13/25/30
